# xmcd
#
# Track frame offsets: 
#        150
#        12790
#        24902
#        39684
#        53628
#        64675
#        78809
#        90049
#        101605
#        113458
#        126240
#        146017
#        155704
#        170186
#        182189
#        198922
#        211502
#        232693
#        247663
#        268244
#        281263
#        294993
#        312212
#        324666
#        340466
#
# Disc length: 4745 seconds
#
# Revision: 0
# Processed by: cddbd v1.5.2PL0 Copyright (c) Steve Scherf et al.
# Submitted via: ExactAudioCopy v1.0b3
#
DISCID=4a128719
DTITLE=Frank Sinatra - Songs For You
DYEAR=2011
DGENRE=Balladen
TTITLE0=April In Paris
TTITLE1=Blue Hawaii
TTITLE2=Come Fly With Me
TTITLE3=Half As Lovely (Twice As True)
TTITLE4=Isle Of Capri
TTITLE5=London By Night
TTITLE6=I Believe
TTITLE7=You're Cheatin' Yourself (If You're Cheatin' On Me)
TTITLE8=You'll Always Be The One I Love
TTITLE9=Wait For Me
TTITLE10=One For My Baby (And One More For The Road)
TTITLE11=Let's Get Away From It All
TTITLE12=Put Your Dreams Away
TTITLE13=How Little We Know
TTITLE14=Everybody Loves Somebody
TTITLE15=Ebb Tide
TTITLE16=Blues In The Night
TTITLE17=Around The World
TTITLE18=Autumn In New York
TTITLE19=Brazil
TTITLE20=It's The Same Old Dream
TTITLE21=It's Nice To Go Travelling
TTITLE22=So Long, My Love
TTITLE23=Moonlight In Vermont
TTITLE24=On The Road To Mandalay
EXTD=
EXTT0=
EXTT1=
EXTT2=
EXTT3=
EXTT4=
EXTT5=
EXTT6=
EXTT7=
EXTT8=
EXTT9=
EXTT10=
EXTT11=
EXTT12=
EXTT13=
EXTT14=
EXTT15=
EXTT16=
EXTT17=
EXTT18=
EXTT19=
EXTT20=
EXTT21=
EXTT22=
EXTT23=
EXTT24=
PLAYORDER=
